<?xml version="1.0" encoding="utf-8"?>
<!-- Generator: Adobe Illustrator 27.1.1, SVG Export Plug-In . SVG Version: 6.00 Build 0)  -->
<svg version="1.1" xmlns="http://www.w3.org/2000/svg" xmlns:xlink="http://www.w3.org/1999/xlink" x="0px" y="0px"
	 viewBox="0 0 863 754" style="enable-background:new 0 0 863 754;" xml:space="preserve">
<style type="text/css">
	.st0{fill:#FFFFFF;stroke:#1A1A1A;stroke-width:3.3679;stroke-linecap:round;stroke-linejoin:round;stroke-miterlimit:10;}
	.st1{fill:none;stroke:#17DC96;stroke-width:3.006;stroke-linecap:round;stroke-linejoin:round;stroke-miterlimit:10;}
	.st2{fill:#FFFFFF;}
	.st3{fill:#17DC96;}
	.st4{fill:none;stroke:#1A1A1A;stroke-width:9;stroke-linecap:round;stroke-linejoin:round;stroke-miterlimit:10;}
	.st5{fill:none;stroke:#1A1A1A;stroke-width:3.3679;stroke-linecap:round;stroke-linejoin:round;stroke-miterlimit:10;}
	.st6{fill:#1A1A1A;}
	.st7{fill:none;stroke:#DC185D;stroke-width:3.673;stroke-linecap:round;stroke-linejoin:round;stroke-miterlimit:10;}
	.st8{fill:none;stroke:#FD3C0B;stroke-width:1.561;stroke-linecap:round;stroke-linejoin:round;stroke-miterlimit:10;}
	.st9{fill:none;stroke:#292F44;stroke-width:1.4563;stroke-linecap:round;stroke-linejoin:round;stroke-miterlimit:10;}
	.st10{fill:none;stroke:#DC185D;stroke-width:2.7504;stroke-linecap:round;stroke-linejoin:round;stroke-miterlimit:10;}
	.st11{fill:none;stroke:#FFFFFF;stroke-width:3;stroke-miterlimit:10;}
	.st12{fill:none;stroke:#111111;stroke-width:0.7455;stroke-linecap:round;stroke-linejoin:round;stroke-miterlimit:10;}
	.st13{fill:none;stroke:#DC185D;stroke-width:3.006;stroke-linecap:round;stroke-linejoin:round;stroke-miterlimit:10;}
	.st14{fill:none;stroke:#FFFFFF;stroke-width:2.4438;stroke-linecap:round;stroke-linejoin:round;stroke-miterlimit:10;}
	.st15{fill:none;stroke:#F1C3D3;stroke-width:1.7388;stroke-linecap:round;stroke-linejoin:round;stroke-miterlimit:10;}
	.st16{fill:#DC185D;}
	.st17{fill:#1A1A1A;stroke:#1A1A1A;stroke-width:1.1397;stroke-miterlimit:10;}
	.st18{fill:none;stroke:#292F44;stroke-width:2.2239;stroke-linecap:round;stroke-linejoin:round;stroke-miterlimit:10;}
	.st19{fill:#303336;}
	.st20{fill:none;stroke:#F1C3D3;stroke-width:1.9817;stroke-linecap:round;stroke-linejoin:round;stroke-miterlimit:10;}
	.st21{fill:#F1C3D3;}
	.st22{fill:none;stroke:#292F44;stroke-width:1.1397;stroke-miterlimit:10;}
	.st23{fill:none;stroke:#100C27;stroke-width:2;stroke-linecap:round;stroke-linejoin:round;stroke-miterlimit:10;}
	.st24{fill:none;}
	
	/*Animation*/
	#Layer_3 {
	animation: blink 5s ease-out 2s infinite alternate none;
	}
	@keyframes blink {
	0% {
		opacity: 1;
	}

	50% {
		opacity: 0.2;
	}

	100% {
		opacity: 1;
	}
	}
	#Layer_3 .st3 {	
	animation: buttonTransition 5s ease-out 0s infinite alternate none; 
	}
	@keyframes buttonTransition {
	  from {
		r: 7%;
	  }
	  to {
		r: 4%;
	  }
	}
	#Layer_2 .st24 {
	stroke-width: 2.5px;
	stroke-dasharray: 1000;
    stroke-dashoffset: 1000;
    animation: dash 5s infinite 2s forwards;
	}
	#Layer_8 .st14 {
	stroke-width: 2.5px;
	stroke-dasharray: 1000;
  	stroke-dashoffset: 1000;
  	animation: dash 5s infinite 2s forwards;
	}
	@keyframes dash {
	  to {
		stroke-dashoffset: 0;
	  }
	}
	#Layer_5 .st3 {
	animation: wobble 5s ease 0s infinite normal forwards;
	}
	@keyframes wobble {
	0%,
	100% {
		transform: translateX(0%);
		transform-origin: 50% 50%;		
	}

	15% {
		transform: translateX(-7px) rotate(-1deg);
	}

	30% {
		transform: translateX(7px) rotate(1deg);
	}

	45% {
		transform: translateX(-7px) rotate(-1deg);
	}

	60% {
		transform: translateX(4px) rotate(1deg);
	}

	75% {
		transform: translateX(-3px) rotate(-1deg);
	}
	}
	#Layer_2 {
	animation: Shake 14s ease 0s infinite alternate-reverse both;
	transform-box: fill-box;
	}
	@keyframes Shake {
	0%,
	100% {
		transform: rotate(0deg);
		transform-origin: 50% 100%;
	}

	10% {
		transform: rotate(1deg);
	}

	20%,
	40%,
	60% {
		transform: rotate(-1deg);
	}

	30%,
	50%,
	70% {
		transform: rotate(1deg);
	}

	80% {
		transform: rotate(-1deg);
	}

	90% {
		transform: rotate(1deg);
	}
	}
	#Layer_6 {
	animation: Shake2 14s ease 0s infinite forwards;
	transform-box: fill-box;
	}
	@keyframes Shake2 {
	0%,
	100% {
		transform: rotate(0deg);
		transform-origin: 50% 100%;
	}

	10% {
		transform: rotate(1.5deg);
	}

	20%,
	40%,
	60% {
		transform: rotate(-1.5deg);
	}

	30%,
	50%,
	70% {
		transform: rotate(1.5deg);
	}

	80% {
		transform: rotate(-1.5deg);
	}

	90% {
		transform: rotate(1.5deg);
	}
	}
	#Layer_4  {
	animation: wobble 9s ease 0s infinite normal forwards;
	}
	@keyframes wobble {
	0%,
	100% {
		transform: translateX(0%);
		transform-origin: 50% 50%;		
	}

	15% {
		transform: translateX(-1px) rotate(-0.5deg);
	}

	30% {
		transform: translateX(2px) rotate(0.5deg);
	}

	45% {
		transform: translateX(-1px) rotate(-0.5deg);
	}

	60% {
		transform: translateX(2px) rotate(0.5deg);
	}

	75% {
		transform: translateX(-1px) rotate(-0.5deg);
	}
	}
	#Layer_7 {
	animation: Shake3 9s ease 0s infinite alternate-reverse both;
	transform-box: fill-box;
	}
	@keyframes Shake3 {
	0%,
	100% {
		transform: rotate(0deg);
		transform-origin: 50% 100%;
	}

	10% {
		transform: rotate(0.5deg);
	}

	20%,
	40%,
	60% {
		transform: rotate(-1deg);
	}

	30%,
	50%,
	70% {
		transform: rotate(1deg);
	}

	80% {
		transform: rotate(-0.5deg);
	}

	90% {
		transform: rotate(0.5deg);
	}
	}
</style>
<g id="Layer_1">
	<path class="st0" d="M150.5,458.8V320.3c0-13.8,8.7-26.2,21.7-30.8L362,221.9L256.5,425.5"/>
	<g>
		<g>
			<path class="st1" d="M27.1,414c13.1-19.8,34.9-6.3,50.1,9.8c16.9,17.9,28.2-6.1,37.9-25.1c9.7-19.1,30.8-32.3,51.7-19.3
				c21,13,2.6,40.9-7.4,48.9c-10.1,8.1-38.3,21.3-25.5,36.2c12.8,14.9,36.5,2.4,43.1,22.5c6.6,20.1-14,27.6-27.4,23.3
				c-13.4-4.4-28.8-26-38.8-25.1c-10,0.9-7.6,32.7-28.2,48.6c-11.9,9.1-34.2,3.6-36-18.8c-1.8-22.5,25.5-35,26.8-48.1
				c0.8-8.8-12.1-13.9-26.9-17.8C34,445.8,16.7,429.8,27.1,414z"/>
		</g>
	</g>
	<g>
		<path class="st2" d="M585.1,310.3"/>
		<path class="st2" d="M668,376c-34.9,61-53,188.8-117,218c-92,42-5,69-181,143L80.3,484.3l480.6-170.7c15.2,2.9,30.4,5.7,45.6,8.6"
			/>
	</g>
	<circle id="XMLID_00000018214899846597224940000009099466732495554493_" class="st3" cx="444.3" cy="320.2" r="277.5"/>
	<g>
		<g>
			<path class="st4" d="M671.5,379.5c-35.1-30.5-67.4-59.4-79.3-69.8c-3.7-3.2-8.7-4.1-13.3-2.5L85.6,482.4c-2.4,0.8-3,3.9-1.1,5.6
				l285.9,248.7"/>
		</g>
	</g>
	<line class="st5" x1="380.8" y1="277.8" x2="380.8" y2="377.7"/>
	<g>
		<g>
			<path class="st3" d="M320.4,597.8l82,81c3.4-1.2,5.6-3.4,6.7-6.8l-82-81l-14-6.9L320.4,597.8z"/>
		</g>
	</g>
	<g>
		<g>
			<path class="st6" d="M405.5,647.7l-82-81c1.1-3.4,3.4-5.7,6.7-6.8l82,81l7,13.9L405.5,647.7z"/>
		</g>
	</g>
	<path class="st7" d="M151.5,79.6c0,4.9,4,8.9,8.9,8.9c4.9,0,8.9-4,8.9-8.9c0-4.9-4-8.9-8.9-8.9C155.4,70.8,151.5,74.7,151.5,79.6z"
		/>
	<path class="st8" d="M185.4,237.8c0,3.8,3,6.8,6.8,6.8c3.8,0,6.8-3,6.8-6.8c0-3.8-3-6.8-6.8-6.8C188.5,231,185.4,234,185.4,237.8z"
		/>
	<g>
		<path class="st5" d="M583.6,424.4C583.5,424.4,583.5,424.4,583.6,424.4c-11.2-9.7-26.8-12.6-40.8-7.6L312,499.2
			c-7.9,2.8-9.9,13.2-3.5,18.7l150,129.5l271.2-96.9c0,0-0.1-0.1-0.2-0.2"/>
		<path class="st9" d="M455.4,506.2l59-21.1c2.1-0.7,2.6-3.4,0.9-4.9L493.2,461c-4.9-4.3-11.7-5.5-17.8-3.4l-59,21.1
			c-2.1,0.7-2.6,3.4-0.9,4.9l22.2,19.3C442.5,507.1,449.3,508.4,455.4,506.2z"/>
		<path class="st9" d="M540.5,499.4C482.9,520,391.9,552,391.9,552c-6.9,2.4-8.5,11.4-3,16.1l69.3,61.2c0,0,4.9-1.8,13.4-4.8"/>
		<path class="st5" d="M458.5,647.4l114.4-205.6c11.2-20.2,29.4-35.6,51.2-43.4l219.1-78.2c6.4-2.3,12.2,4.6,8.9,10.5L729.7,550.5"
			/>
	</g>
	<path class="st10" d="M667,593.5l3.4-53l32.8,3.6l19.1-39.3l43,26.8c0,0-20.3,42.1-33.4,51.3C719.5,591.8,667,593.5,667,593.5z"/>
	
		<ellipse transform="matrix(0.3168 -0.9485 0.9485 0.3168 -175.1096 289.5825)" class="st5" cx="113.5" cy="266.3" rx="24.3" ry="24.3"/>
	<g>
		<path class="st11" d="M648.7,316.4c-0.5-0.4-0.9-0.4-1.4,0c-1.6,1-3.2,2-4.8,3c-0.4,0.2-1,0.3-1.4,0.2c-1.8-0.5-3.5-1-5.3-1.5
			c-0.3-0.1-0.7-0.4-0.9-0.7c-1-1.8-1.9-3.7-2.9-5.6c-0.1-0.3-0.6-0.6-0.9-0.5c-2.1,0.2-4.2,0.5-6.3,0.7c-0.6,0.1-0.8,0.3-0.9,0.8
			c-0.4,2-0.8,4-1.3,5.9c-0.1,0.4-0.4,0.8-0.7,1c-1.6,1-3.2,2-4.8,2.9c-0.4,0.2-0.9,0.3-1.3,0.2c-1.8-0.5-3.7-1.1-5.5-1.7
			c-0.6-0.2-0.9-0.2-1.4,0.4c-1.2,1.6-2.4,3.2-3.7,4.8c-0.4,0.5-0.4,0.9,0,1.4c1,1.6,2,3.2,3,4.8c0.4,0.5,0.4,1,0.2,1.6
			c-0.6,1.7-1.1,3.4-1.5,5.1c-0.1,0.6-0.4,1-1,1.2c-1.8,0.9-3.6,1.8-5.3,2.6c-0.5,0.3-0.7,0.6-0.6,1.2c0.3,2,0.6,4,0.8,6
			c0.1,0.7,0.4,0.9,1,1c1.9,0.4,3.9,0.8,5.8,1.3c0.4,0.1,0.8,0.5,1,0.8c0.9,1.6,1.8,3.3,2.6,5c0.2,0.4,0.3,1,0.2,1.4
			c-0.6,1.9-1.3,3.8-1.9,5.8c-0.2,0.6-0.2,1,0.4,1.4c1.6,1.2,3.2,2.5,4.8,3.7c0.5,0.4,0.8,0.4,1.3,0.1c1.7-1.2,3.4-2.3,5.2-3.4
			c0.4-0.2,1-0.3,1.4-0.2c1.8,0.4,3.5,0.9,5.3,1.3c0.7,0.1,1.1,0.4,1.4,1.1c0.8,1.7,1.7,3.4,2.5,5c0.3,0.6,0.6,0.8,1.2,0.7
			c2-0.3,4-0.6,6-0.8c0.7-0.1,0.9-0.4,1-1c0.4-1.9,0.8-3.8,1.2-5.7c0.1-0.6,0.4-0.9,1-1.2c1.7-0.8,3.3-1.8,5-2.6
			c0.4-0.2,0.9-0.2,1.2-0.1c2,0.6,3.9,1.3,5.9,2c0.6,0.2,0.9,0.1,1.3-0.4c1.2-1.6,2.5-3.2,3.7-4.8c0.4-0.5,0.4-0.9,0-1.4
			c-1.1-1.7-2.3-3.4-3.3-5.1c-0.2-0.4-0.3-0.9-0.2-1.3c0.4-1.9,0.9-3.7,1.4-5.6c0.1-0.4,0.4-0.8,0.7-1c2-1.1,4-2.1,6.1-3.1
			c-0.3-2.4-0.6-4.7-1-7c0-0.3-0.5-0.7-0.8-0.7c-2-0.5-4-0.9-5.9-1.3c-0.4-0.1-0.8-0.3-1-0.7c-1-1.6-2.1-3.2-3-4.9
			c-0.2-0.4-0.3-0.9-0.2-1.3c0.5-1.8,1.1-3.7,1.7-5.5c0.2-0.6,0.1-0.9-0.4-1.3C651.9,318.9,650.2,317.6,648.7,316.4z M641.2,350.2
			c-4,5.2-11.4,6.1-16.6,2.1c-5.2-4.1-6.1-11.4-2-16.7c4-5.1,11.4-6,16.6-2C644.3,337.6,645.3,345,641.2,350.2z"/>
		<g>
			<path class="st12" d="M668.5,349c-0.2-0.2-0.3-0.5-0.3-0.9l0.1-0.7c0-0.4,0.1-0.8,0.1-1.2c0-0.1,0.1-0.2,0.3-0.2
				c0.1,0,0.2,0.1,0.2,0.3c0,0.4-0.1,0.7-0.1,1.2l-0.1,0.7c0,0.3,0,0.4,0.3,0.6c0.6,0.3,1.3,0.6,1.9,0.8c0.8,0.4,1.7,0.7,2.5,1.1
				c0.1,0,0.4,0,0.5-0.1c0.6-0.6,1.2-1.2,1.7-1.8c0.5-0.6,1.1-1.1,1.6-1.7c0.3-0.3,0.7-0.4,1-0.4c1.7,0,3,0,4.2,0.1
				c0.4,0,0.9,0.2,1.2,0.5c1,1.1,2,2.2,2.8,3.3c0.3,0.3,0.4,0.4,0.8,0.2c1.3-0.5,2.8-1.1,4.4-1.6c0.3-0.1,0.4-0.2,0.4-0.6
				c0-1.8-0.1-3.1,0-4.4c0-0.4,0.2-0.8,0.5-1.1c1-0.9,2.1-1.9,3.3-2.9c0.3-0.2,0.7-0.3,1-0.3c0.7,0,1.5,0.1,2.2,0.2
				c0.8,0.1,1.6,0.1,2.4,0.2c0.2,0,0.5-0.1,0.5-0.2c0.6-1.2,1.2-2.5,1.7-3.7l0.5-1.1l-0.8-0.8c-1-0.9-1.9-1.8-2.8-2.7
				c-0.3-0.3-0.4-0.7-0.4-1.1c0-1.6,0.1-3,0.2-4.4c0-0.3,0.2-0.8,0.5-1.1c1.1-1,2.3-1.9,3.6-3c0.3-0.2,0.4-0.4,0.2-0.7
				c-0.5-1.3-1.1-2.8-1.6-4.4c-0.1-0.3-0.2-0.4-0.6-0.4c-1.9,0.1-3.4,0.1-4.7,0.1c-0.3,0-0.8-0.2-1-0.4c-0.5-0.4-0.9-0.9-1.3-1.4
				c-0.5-0.6-1.1-1.1-1.7-1.7c-0.4-0.4-0.6-0.8-0.5-1.3c0.1-0.7,0.1-1.5,0.2-2.2c0.1-0.7,0.1-1.5,0.2-2.2c0-0.4,0-0.5-0.4-0.7
				c-1.4-0.6-2.8-1.2-4.2-1.9c-0.3-0.2-0.5-0.1-0.8,0.2c-0.5,0.5-1,1-1.4,1.5c-0.5,0.5-1,1.1-1.5,1.6c-0.4,0.4-0.8,0.6-1.5,0.5
				c-0.8-0.1-1.5-0.1-2.3-0.2c-0.6,0-1.2-0.1-1.8-0.1c-0.4,0-0.9-0.2-1.2-0.5c-1.1-1.2-2.1-2.5-3-3.6c-0.2-0.3-0.4-0.3-0.7-0.2
				c-1.6,0.6-3,1.2-4.4,1.6c-0.3,0.1-0.4,0.3-0.4,0.7c0.1,1.5,0.1,3.1,0.1,4.6c0,0.4-0.3,0.9-0.5,1.2c-1,1-2,2.1-3,3.1
				c-0.3,0.3-0.8,0.5-1.1,0.4c-1.6-0.1-3.2-0.2-4.5-0.4c-0.4,0-0.5,0-0.7,0.4c-0.5,1.3-1.2,2.7-1.9,4.2c-0.2,0.3-0.1,0.5,0.1,0.7
				c0.3,0.3,0.6,0.6,1,0.9l0.3,0.3c0.1,0.1,0.1,0.2,0,0.3c-0.1,0.1-0.2,0.1-0.3,0c0,0-0.4-0.3-0.4-0.3c-0.4-0.3-0.7-0.6-1-0.9
				c-0.4-0.4-0.5-0.7-0.2-1.3c0.7-1.6,1.4-2.9,1.9-4.2c0.3-0.6,0.7-0.7,1.2-0.6c1.3,0.1,2.9,0.3,4.5,0.4c0.2,0,0.6-0.1,0.8-0.3
				c1-1,2.1-2,3-3.1c0.2-0.2,0.4-0.6,0.4-0.8c0-1.6,0-3.1-0.1-4.6c0-0.4,0.1-0.9,0.7-1.1c1.4-0.5,2.8-1,4.3-1.6
				c0.5-0.2,0.9-0.1,1.2,0.3c0.9,1.1,1.9,2.4,3,3.6c0.2,0.2,0.5,0.3,0.9,0.4c0.6,0.1,1.2,0.1,1.8,0.1c0.8,0,1.5,0.1,2.3,0.2
				c0.5,0.1,0.8,0,1.1-0.4c0.5-0.5,1-1.1,1.5-1.6c0.5-0.5,1-1,1.4-1.5c0.4-0.4,0.8-0.5,1.3-0.3c1.4,0.7,2.9,1.3,4.2,1.9
				c0.6,0.3,0.7,0.7,0.7,1.2c-0.1,0.7-0.1,1.5-0.2,2.2c-0.1,0.7-0.1,1.5-0.2,2.2c0,0.4,0.1,0.6,0.4,0.9c0.6,0.5,1.1,1.1,1.7,1.7
				c0.4,0.5,0.9,0.9,1.3,1.4c0.2,0.2,0.5,0.3,0.7,0.3c1.4,0,2.9,0,4.7-0.1c0.6,0,0.9,0.2,1.1,0.7c0.6,1.6,1.1,3,1.6,4.3
				c0.2,0.5,0.1,0.9-0.4,1.3c-1.3,1-2.5,2-3.6,3c-0.2,0.2-0.3,0.5-0.4,0.8c-0.1,1.4-0.2,2.8-0.2,4.4c0,0.3,0.1,0.6,0.2,0.7
				c0.9,0.9,1.8,1.8,2.8,2.7l1,0.9c0,0.3-0.5,1.5-0.5,1.5c-0.6,1.2-1.1,2.5-1.7,3.7c-0.1,0.3-0.6,0.5-1,0.5c-0.8,0-1.6-0.1-2.4-0.2
				c-0.7-0.1-1.5-0.1-2.2-0.2c-0.2,0-0.5,0.1-0.7,0.2c-1.2,1-2.3,1.9-3.3,2.9c-0.2,0.2-0.4,0.5-0.4,0.8c0,1.3,0,2.6,0,4.4
				c0,0.6-0.2,0.9-0.7,1.1c-1.6,0.6-3,1.1-4.3,1.6c-0.5,0.2-0.9,0.1-1.3-0.4c-0.9-1-1.8-2.2-2.8-3.2c-0.2-0.2-0.5-0.3-0.8-0.4
				c-1.2-0.1-2.6-0.1-4.2-0.1c-0.2,0-0.5,0.1-0.7,0.2c-0.6,0.5-1.1,1.1-1.6,1.7c-0.6,0.6-1.1,1.2-1.7,1.8c-0.2,0.2-0.7,0.4-1.1,0.2
				c-0.8-0.4-1.7-0.7-2.5-1.1c-0.6-0.3-1.3-0.6-1.9-0.8C668.7,349.1,668.6,349,668.5,349z"/>
		</g>
		<g>
			<path class="st12" d="M677.9,336.4c0-0.4,0.1-0.5,0.2-0.4c3.4,1.3,7.3,0.2,9.7-2.6c3.1-3.7,2.6-9.2-1.1-12.3s-9.2-2.6-12.3,1.1
				c-0.1,0.1-0.2,0.2-0.3,0.3c-0.1,0.1-0.2,0.1-0.3,0c-0.1-0.1-0.1-0.2,0-0.3c0.1-0.1,0.2-0.2,0.3-0.3c3.2-3.9,9-4.4,12.9-1.2
				c3.9,3.2,4.4,9,1.2,12.9C685.7,336.7,681.6,337.8,677.9,336.4C677.9,336.4,677.9,336.4,677.9,336.4z"/>
		</g>
	</g>
	<path class="st13" d="M305.1,555.2c0.5,13.9-11,23.1-21.8,20.5c-10.8-2.6-25.6-2.6-29.9,13.3c-4.4,15.9-14.3,22.4-27.9,18.2
		c-13.5-4.2-21.8,2.6-23.3,14.7"/>
	<line class="st1" x1="219.3" y1="575.8" x2="137.2" y2="601.5"/>
	<line class="st1" x1="256.6" y1="744.9" x2="304.1" y2="639.9"/>
</g>
<g id="Layer_8">
	<g>
		<path class="st14" d="M712.8,370.6c-33.1,21.2-12.6,42.8,6.7,30.5s28-59.8,3.6-92.9c-26.3-35.6-64.8-35.8-75.3-23.3
			c-15.5,18.5,11.1,23.3,19,17c17.4-13.7,33.1-64-3.5-89.8c-42-29.6-99.9,17.2-129.8-4.1c-35.1-25.1-16.5-79.4-16.5-79.4l0.1-0.3
			c-2.1,12-9.4,29-21.1,35.3c-11.7,6.2-28.4,7.4-35.5-2c-7.1-9.4,3.3-17.2,11-13.5c7.7,3.7,11.5,19,1.7,32.9
			c-9.8,13.9-28,16.9-38.4,14"/>
	</g>
</g>
<g id="Layer_7">
	<g>
		<path class="st2" d="M384,472c0,0,37.4,12.5,46.2,16.7s16.6,8.2,21.2,13.6c4.5,5.4,16.3,10.9,16,16.3c-0.3,5.4-4.8,10.3-4.8,10.3
			s6.1,6.1,10.6,11.5c4.5,5.4,7.3,11.2,4.8,14.5c-2.4,3.3-8.5,4.5-8.5,4.5s4.8,7-0.9,12.1c-5.7,5.1-15.7,1.8-15.7,1.8
			s2.1,3.9-3.3,8.2c-5.4,4.2-17.2,2.1-27.8-2.1c-10.6-4.2-37.5-19.4-44.5-23c-7-3.6-30.3-24.5-30.3-24.5s-6.1-12.1,6-33
			C365.1,478.1,384,472,384,472z"/>
		<path class="st15" d="M462.6,529c-13-9.7-31.2-21.5-36.9-23"/>
		<path class="st15" d="M469.5,559.5c-7.9-7.3-32.4-21.8-42.4-25.1"/>
		<path class="st15" d="M452.9,573.4c-8.8-7-35.4-21.5-39.6-23.3"/>
		<path class="st15" d="M454.7,506.9c-3.3,5.7,3.3,14.5,8.8,18.5"/>
		<path class="st15" d="M476.8,547c-6.8-5-9.3-3-11.8-0.2c-2.5,2.7,0.2,8.6,0.2,8.6"/>
		<path class="st15" d="M470.2,563.4c-4.3-3.2-10.2-7.7-14.8-4.1c-4.5,3.6-2.3,9.5,2.3,13.8"/>
		<path class="st15" d="M452.8,575.4c-5.4-3.4-11.6-7.7-15.2-4.3s-1.1,8.6,3.2,11.8"/>
	</g>
</g>
<g id="Layer_9">
	<g>
		<path class="st16" d="M357.7,153.7c2.7,0.3,8.2,9.1,8.2,9.1s80.6,25.9,126.9,62.2c46.3,36.3,69.9,67.6,71.7,108.5
			c1.8,40.9-13.2,87.6-13.2,87.6l-83.5-21.3l13.6-64.9l-111.7-58.1l-18.6,113l-51.7,17.7l94.3,63.3c1.5,1,1.3,3.3-0.4,4
			c-8.5,3.5-23.5,11.7-29.2,20.3c-4.6,4.6-14.3,19.4-12.7,40.4c0.2,2.4-2.3,4.1-4.4,3.1c-54.3-25-94-51.6-121.5-70.7
			c-49-34-64.9-67.2-67.6-122.1C155,290.8,158.8,236.1,177,203c18.2-33.1,55.2-42.9,73.3-48.8c18.2-5.9,36.8-8.4,36.8-8.4
			s15.2-14.3,18.8-12.5C310.5,135.6,357.7,153.7,357.7,153.7z"/>
		<g>
			<path class="st2" d="M400.2,82.7c-3.8,16.2-5.7,29-14.3,43.8c-8.6,14.8-17.6,19-26.7,19.5l-1,11c0,0-21.5,18.5-26.3,19
				s-32-37.5-32-37.5s11-17.9,14.8-24.8c3.8-6.9,3-18.4,3-18.4s-8.3-9.5-6.9-21.7c1.4-12.1,8.1-13.3,12.1-11.9
				c4,1.4,7.1,7.9,7.1,7.9l14.5-21.9L400.2,82.7z"/>
			<path class="st17" d="M345.4,57.8c0,0,2.5,9.5,9.8,9.7c7.9,0.2,10,3.8,12.5,6.7c2.5,2.8,4.3,8.4,10,9.7
				c5.7,1.3,10.2-1.4,15.1-0.2c4.9,1.3,7.3,9.3,13.3,13c8.4,5.2,25.2,4.1,29.5-5.9c4.3-10,0.6-17-4.3-21.6c-3.4-3.2-12-3.6-13-9
				c-1.1-6,5.1-13-1.1-20.6c-6.2-7.6-14.8-2.2-18.6-5.4c-3.8-3.2-3.6-11.7-10.5-18.7c-7.1-7.3-22.2-7.1-31.6-0.6
				c-8.3,5.8-22.4,5.4-27.3,12.7c-4.9,7.3-6.3,13.3-7.5,20.5c-1.1,7.1-1,13.3-1,13.3s6,2.5,7.9,9.2c1.4,5,1.1,12.7,1.1,12.7l3.3,2.2
				c0,0,0.6-7.4,4.1-10.5C342.9,70.2,345.4,57.8,345.4,57.8z"/>
			<path class="st18" d="M372.4,89.2c-5.6-4.1-13.3-8.6-17.9-9.5"/>
			<path class="st18" d="M396.7,95.2c-3.5-2.7-9.8-3.7-12.9-3.2"/>
			<g>
				<g>
					<g>
						<path class="st19" d="M387.1,105c1.1,0.3,1.8-0.3,2.3-1.8c0.5-1.5,0.2-2.5-0.9-2.8c-1.1-0.3-1.8,0.3-2.3,1.8
							C385.7,103.8,386,104.7,387.1,105z"/>
					</g>
				</g>
			</g>
			<g>
				<g>
					<g>
						<path class="st19" d="M358.2,96.3c1.1,0.3,1.8-0.3,2.3-1.8c0.5-1.5,0.2-2.5-0.9-2.8c-1.1-0.3-1.8,0.3-2.3,1.8
							S357.1,96,358.2,96.3z"/>
					</g>
				</g>
			</g>
			<path class="st20" d="M381.3,93.7c-1.9,3-3.3,14.6-3.7,19.2c-0.3,4.6-0.3,8.1-3.8,7.8c-3.5-0.3-7.9-4.1-7.9-4.1"/>
			<path class="st20" d="M373.9,130.1c-7.1,4.7-12.5,3-16.5-7.8"/>
			<g>
				<g>
					<g>
						<g>
							<g>
								<path class="st21" d="M348.7,114c2.8,0.6,4.7-1.2,5.6-5.3s-0.1-6.6-2.9-7.2c-2.8-0.6-4.7,1.2-5.6,5.3
									C344.9,111,345.9,113.4,348.7,114z"/>
							</g>
						</g>
					</g>
				</g>
			</g>
			<path class="st20" d="M317.8,95.3c2.9,3.7,7,3.1,8.4,2"/>
			<path class="st20" d="M319.9,69.2c1.9,3.3,2.1,18.1,3.2,21.1"/>
			<path class="st20" d="M359.2,146c-10,0.2-21.6-9.2-26.8-18.3"/>
			<path class="st22" d="M344.5,44c4.8,7.3,8.7,9.7,18.6,10.6c9.8,1,11.9,7.5,14,10.5c4.8,6.8,10,5.9,14.9,5.9s8.3,5.1,10.5,11.4
				c2.2,6.3,8.4,10.3,15.4,10.3"/>
			<path class="st22" d="M343.8,33.7c4.4-1.4,12.5-2.1,16.2,3.5c4.4,6.8,7.9,5.2,14.1,5.4c9.7,0.3,9,7.8,14.4,12.9
				c5.4,5.1,8.3,1.7,14.1,6.5c5.9,4.8,4.1,11.3,6.5,17.6c2.4,6.3,9,9,13.2,5.7"/>
			<path class="st22" d="M353.2,23.7c5.4-4.3,16.3-3.1,18.9,1.9c3.3,6.3,8.8,4.7,12.1,5.9c6,2.2,3.8,11.1,8.4,14.4
				c5.2,3.8,12.2-1.6,16,3.5c4.9,6.5-0.3,12.2,7.3,20.3c2.6,2.8,11.4,2.4,12.9,7.9c1.4,5.6-1.1,8.3-1.1,8.3"/>
		</g>
		<path class="st2" d="M551.2,421.1c0,0-16.6-13.8-38.1-19.5c-21.5-5.7-45.4-1.8-45.4-1.8s-13,31.8-13.9,44.2
			c-0.9,12.4,1.8,26.3,2.7,32.4c0.9,6.1,0,13.3,4.5,14.5c4.5,1.2,11.8-2.4,14.5-8.8c2.7-6.4,1.8-22.1,1.8-22.1s0.9-12.1,4.5-13.3
			c3.6-1.2,10.6-0.6,11.5,7.3c0.9,7.9-0.6,13.6-4.2,19.1c-3.6,5.4-7.9,6.7-11.5,10.6c-3.6,3.9-7,7.3-7.3,11.8
			c-0.3,4.5,4.8,8.8,11.2,9.7c6.4,0.9,18.5-4.2,24.5-9.1c0,0,9.7,3.9,16.9-2.1c7.3-6.1,12.4-17.9,18.5-34.8S551.2,421.1,551.2,421.1
			z"/>
		<path class="st23" d="M287.3,148.5c3.9,16.6,27,44.3,27,44.3l16.1-16.3"/>
		<path class="st23" d="M365.6,163.9c-2,13.4-17,32.2-17,32.2l-13.4-19.7"/>
		<path class="st23" d="M369.7,276.7c4.1-26.6,8.9-69.9,8.9-69.9"/>
		<path class="st23" d="M299,407.6c-11.7-7.9-18-12.1-18-12.1s-4.8-59-9.4-110.8c-4.5-51.7-10.3-78.4-10.3-78.4"/>
		<path class="st23" d="M481.3,334.8c5.9-29.7,14.1-52.9,14.1-52.9"/>
		<path class="st23" d="M362,453.5c-27.9,7.5-47,30-48.3,62.6"/>
		<path class="st23" d="M558.1,377.3c-18.4-14.3-51.7-23.8-79.7-16.3"/>
		<path class="st23" d="M281,395.5c-28-19.6-61.4,9-61.4,9"/>
		<path class="st15" d="M457.7,471.7c7.9,4.3,10.2,11.1,8.6,17.5"/>
		<path class="st15" d="M506.2,496c7-7.3,13.8-18.8,15.8-25"/>
		<path class="st15" d="M495.2,501c-2.7-4.3-14.1-4.3-22.2-1.4"/>
	</g>
</g>
<g id="Layer_6">
	<g>
		<g>
			<g>
				<g>
					<g>
						<g>
							<path class="st16" d="M766.9,346.3l-150.2-44.4c-2.6-0.8-4.1-3.5-3.3-6.1l44.4-150.2c0.8-2.6,3.5-4.1,6.1-3.3l150.2,44.4
								c2.6,0.8,4.1,3.5,3.3,6.1L773.1,343C772.3,345.6,769.5,347.1,766.9,346.3z"/>
						</g>
					</g>
				</g>
			</g>
		</g>
		<g>
			<path class="st2" d="M677.1,270.8c-0.3-0.1-0.5-0.2-0.6-0.5l-19.6-35.6c-0.3-0.5-0.1-1.1,0.4-1.4l34-20c0.5-0.3,1.1-0.1,1.4,0.4
				c0.3,0.5,0.1,1.1-0.4,1.4l-33.2,19.5l19.1,34.7c0.3,0.5,0.1,1.1-0.4,1.4C677.7,270.8,677.4,270.9,677.1,270.8z"/>
		</g>
		<g>
			<path class="st2" d="M691.4,274.5c-0.2-0.1-0.4-0.2-0.5-0.3c-0.4-0.4-0.3-1.1,0.1-1.5l51.9-45.9c0.4-0.4,1.1-0.3,1.5,0.1
				c0.4,0.4,0.3,1.1-0.1,1.5l-51.9,45.9C692.1,274.5,691.7,274.6,691.4,274.5z"/>
		</g>
		<g>
			<path class="st2" d="M739.3,287c-0.2-0.1-0.5-0.2-0.6-0.5c-0.3-0.5-0.2-1.1,0.3-1.4l33.6-21l-19.5-33.2c-0.3-0.5-0.1-1.1,0.4-1.4
				c0.5-0.3,1.1-0.1,1.4,0.4l20,34c0.3,0.5,0.1,1.1-0.3,1.4l-34.4,21.6C739.9,287,739.6,287,739.3,287z"/>
		</g>
	</g>
</g>
<g id="Layer_5">
	<g>
		<path class="st2" d="M798.7,356.4l-77.4-56.2c-3.3-2.4-7.9-0.1-8,3.9l-2.4,95.6c-0.1,3.8,3.9,6.3,7.3,4.6l22.9-11.3
			c2.5-1.2,5.5-0.2,6.7,2.3l27.9,56.4c1.2,2.5,4.2,3.5,6.7,2.3l18.1-8.9c2.5-1.2,3.5-4.2,2.3-6.7L775,381.9
			c-1.2-2.5-0.2-5.5,2.3-6.7l20.7-10.3C801.4,363.3,801.8,358.6,798.7,356.4z"/>
		<g>
			<path class="st3" d="M792.7,438.8c-0.6,0-1.1-0.2-1.7-0.3c-1.7-0.6-3.1-1.8-3.9-3.4l-27.9-56.4c-0.8-1.6-2.8-2.3-4.4-1.5
				l-22.9,11.3c-2.1,1.1-4.6,0.9-6.6-0.4c-2-1.3-3.2-3.5-3.1-5.9l2.4-95.6c0.1-2.5,1.5-4.8,3.8-5.9c2.3-1.1,4.9-0.9,7,0.6l77.4,56.2
				c1.9,1.4,3,3.7,2.8,6c-0.2,2.4-1.6,4.4-3.7,5.5l-20.7,10.3c-0.8,0.4-1.4,1.1-1.7,1.9c-0.3,0.8-0.2,1.7,0.2,2.5l27.9,56.4
				c0.8,1.6,0.9,3.4,0.3,5.2c-0.6,1.7-1.8,3.1-3.4,3.9l-18.1,8.9C795,438.6,793.8,438.9,792.7,438.8z M756.7,373.4
				c2.3,0.2,4.5,1.5,5.6,3.7l27.9,56.4c0.4,0.8,1.1,1.4,1.9,1.7c0.8,0.3,1.7,0.2,2.5-0.2l18.1-8.9c0.8-0.4,1.4-1.1,1.7-1.9
				c0.3-0.8,0.2-1.7-0.2-2.5l-27.9-56.4c-0.8-1.6-0.9-3.4-0.3-5.2c0.6-1.7,1.8-3.1,3.4-3.9l20.7-10.3c1-0.5,1.7-1.5,1.8-2.7
				c0.1-1.2-0.4-2.3-1.3-3l-77.4-56.2c-1-0.7-2.3-0.9-3.4-0.3c-1.1,0.6-1.8,1.6-1.8,2.9l-2.4,95.6c0,1.2,0.5,2.2,1.5,2.9
				c1,0.6,2.2,0.7,3.2,0.2l22.9-11.3C754.4,373.5,755.6,373.3,756.7,373.4z"/>
		</g>
	</g>
</g>
<g id="Layer_4">
	<g>
		<g>
			<path class="st16" d="M611.8,176.9l-103.4,26.2c-1.8,0.5-3.6-0.6-4.1-2.4L478.1,97.2c-0.5-1.8,0.6-3.6,2.4-4.1l103.4-26.2
				c1.8-0.5,3.6,0.6,4.1,2.4l26.2,103.4C614.7,174.6,613.6,176.4,611.8,176.9z"/>
		</g>
		<path class="st6" d="M509.2,203.6l102-25.8c2.3-0.6,3.6-3.2,3-5.8l-5.9-23.3c-0.5-1.8-1.8-3.2-3.4-3.7l-16.8-4.9
			c-4.7-1.4-11.8-0.2-15.8,2.6l-11.4,8.1c-3.9,2.8-11,3.7-15.7,2l-15.8-5.8c-0.1,0-0.2-0.1-0.2-0.1c-1.4-0.6-16.6-6.9-23.6,7.5
			c-3.7,7.6-6.6,13.5-8,16.2c-0.5,1.1-0.7,2.4-0.3,3.7l6.5,25.6C504.5,202.6,506.9,204.2,509.2,203.6z"/>
		<path class="st2" d="M571.9,110.6c-6.1,1.6-12.4-2.2-14-8.3c-1.6-6.1,2.2-12.4,8.3-14c6.1-1.6,12.4,2.2,13.9,8.3
			C581.8,102.8,578,109.1,571.9,110.6z"/>
	</g>
</g>
<g id="Layer_3">
	<circle class="st3" cx="699.3" cy="95.2" r="53.6"/>
</g>
<g id="Layer_2">
	<g>
		<path class="st6" d="M680.7,153.1l-4.7,20.7c0,0-0.5,10.7,13,13.8c13.5,3,18.4-5.5,18.4-5.5l5.6-21.6
			C713.1,160.4,698.5,163.5,680.7,153.1z"/>
		<g>
			<g>
				<path class="st6" d="M692.7,189.4l-6.2-1.4c-7.7-1.8-12.6-9.5-10.9-17.2l3.8-17c0.1-0.4,0.2-0.7,0.3-1c0.1-0.3,0.3-0.6,0.6-0.7
					c0.3-0.1,0.6-0.1,0.9,0.1c9.4,5.6,20.6,8.1,31.5,7.2c0.3,0,0.6,0.1,0.9,0.3c0.2,0.2,0.3,0.6,0.3,0.9c0,0.3-0.1,0.7-0.2,1
					l-3.8,17C708.2,186.3,700.5,191.2,692.7,189.4z M681.4,154.7l-3.7,16.6c-1.5,6.6,2.7,13.2,9.3,14.7l6.2,1.4
					c6.6,1.5,13.2-2.7,14.7-9.3l3.7-16.5C701.2,162.2,690.5,159.8,681.4,154.7z"/>
			</g>
			<g>
				<path class="st6" d="M696.1,160.3c-5.6-1.3-11-3.4-15.9-6.3c-20.6-12.2-31-36.1-25.7-59.5c6.7-29.6,36.2-48.2,65.8-41.5
					c29.6,6.7,48.2,36.2,41.5,65.8c-5.3,23.4-24.9,40.6-48.9,42.7C707.4,161.9,701.7,161.5,696.1,160.3z M719.9,55
					c-28.5-6.4-56.8,11.5-63.3,39.9c-5.1,22.5,4.8,45.5,24.7,57.2c9.4,5.6,20.6,8.1,31.5,7.2c23-2,41.9-18.5,47-41
					C766.3,89.8,748.3,61.5,719.9,55z"/>
			</g>
			<g>
				<path class="st24" stroke="#000000" fill="none" d="M670.4,121c3.9,0.8,8.4,1.3,12.1-0.4c3.5-1.6,5.2-5.3,6.4-8.7c1.1-3,5.5-15.4-0.6-16.2
					c-1.6-0.2-2.9,1.3-3.7,2.7c-4.9,8.8-3.3,20.4,6.4,24.9c4.8,2.3,11.9,4.2,17.3,3.9c5.5-0.3,13.5-1.4,17.9-5.1
					c3.3-2.7,7.9-12.1,4.8-16.2c-1.6-2.2-5.3-1.4-6.7,0.5c-2.9,3.7-2.5,8,0.5,11.5c4.9,5.7,13.2,7.1,19.8,10.1"/>
			</g>
		</g>
	</g>
</g>
</svg>
