<svg width="623" height="409" fill="none" xmlns="http://www.w3.org/2000/svg"><path d="M0 42h623v353c0 7.732-6.268 14-14 14H14c-7.732 0-14-6.268-14-14V42Z" fill="#fff"/><path d="M0 14C0 6.268 6.268 0 14 0h595c7.732 0 14 6.268 14 14v28H0V14Z" fill="#fff" fill-opacity=".4"/><circle cx="23" cy="21" r="8" fill="#fff"/><circle cx="48" cy="21" r="8" fill="#fff"/><circle cx="73" cy="21" r="8" fill="#fff"/><rect x="20" y="125" width="108" height="12" rx="4" fill="#280c9e"/><rect x="20" y="149" width="63" height="12" rx="4" fill="#EAEAEA"/><rect x="20" y="173" width="83" height="12" rx="4" fill="#EAEAEA"/><g xmlns="http://www.w3.org/2000/svg" x="20" y="173" transform="translate(23,110) scale(0.100000,-0.100000)" fill="#280c9e" stroke="none">
<path d="M137 573 c-4 -3 -7 -10 -7 -15 0 -12 239 -130 250 -123 27 17 2 39 -100 90 -108 54 -130 62 -143 48z"/>
<path d="M22 508 c-7 -7 -12 -16 -12 -20 0 -4 42 -29 92 -54 l93 -46 -87 -44 c-92 -46 -107 -59 -89 -77 15 -15 251 100 250 123 0 9 -44 36 -112 70 -62 30 -114 56 -117 57 -3 2 -11 -2 -18 -9z"/>
<path d="M228 285 c-61 -31 -108 -61 -108 -69 0 -18 214 -129 238 -124 37 7 13 33 -69 77 l-87 47 90 48 c85 46 104 68 62 73 -10 1 -67 -22 -126 -52z"/>
<path d="M11 157 c-6 -6 -11 -15 -11 -19 0 -12 240 -129 250 -123 6 4 10 14 9 23 0 24 -232 135 -248 119z"/>
</g></svg>
