<svg width="623" height="409" fill="none" xmlns="http://www.w3.org/2000/svg"><path d="M0 42h623v353c0 7.732-6.268 14-14 14H14c-7.732 0-14-6.268-14-14V42Z" fill="#fff"/>
<g xmlns="http://www.w3.org/2000/svg" x="20" y="173" transform="translate(23,110) scale(0.100000,-0.100000)" fill="#280c9e" stroke="none">
<path d="M137 573 c-4 -3 -7 -10 -7 -15 0 -12 239 -130 250 -123 27 17 2 39 -100 90 -108 54 -130 62 -143 48z"/>
<path d="M22 508 c-7 -7 -12 -16 -12 -20 0 -4 42 -29 92 -54 l93 -46 -87 -44 c-92 -46 -107 -59 -89 -77 15 -15 251 100 250 123 0 9 -44 36 -112 70 -62 30 -114 56 -117 57 -3 2 -11 -2 -18 -9z"/>
<path d="M228 285 c-61 -31 -108 -61 -108 -69 0 -18 214 -129 238 -124 37 7 13 33 -69 77 l-87 47 90 48 c85 46 104 68 62 73 -10 1 -67 -22 -126 -52z"/>
<path d="M11 157 c-6 -6 -11 -15 -11 -19 0 -12 240 -129 250 -123 6 4 10 14 9 23 0 24 -232 135 -248 119z"/>
</g>
<circle cx="23" cy="21" r="8" fill="#fff"/><circle cx="48" cy="21" r="8" fill="#fff"/><circle cx="73" cy="21" r="8" fill="#fff"/><rect x="20" y="125" width="108" height="12" rx="4" fill="#EAEAEA"/><rect x="20" y="149" width="63" height="12" rx="4" fill="#280c9e"/><rect x="20" y="173" width="83" height="12" rx="4" fill="#EAEAEA"/><rect x="191" y="131" width="68.195" height="37.089" rx="18.544" fill="#F5F5F5"/><path d="M219.468 143.332v11.674H217.8v-5.203h-6.704v5.203h-1.668v-11.674h1.668v5.02h6.704v-5.02h1.668Zm10.915 7.304c0 .123-.011.284-.033.484h-7.171c.1.778.439 1.407 1.017 1.885.589.467 1.317.7 2.185.7 1.056 0 1.906-.356 2.551-1.067l.884 1.034c-.4.467-.9.822-1.501 1.067-.589.245-1.251.367-1.984.367-.934 0-1.763-.189-2.485-.567a4.215 4.215 0 0 1-1.685-1.618c-.389-.689-.583-1.467-.583-2.335 0-.856.189-1.628.567-2.318a4.139 4.139 0 0 1 1.584-1.601c.678-.389 1.44-.583 2.285-.583.845 0 1.595.194 2.251.583a3.916 3.916 0 0 1 1.551 1.601c.378.69.567 1.479.567 2.368Zm-4.369-3.202c-.767 0-1.412.234-1.935.701-.511.467-.811 1.078-.9 1.834h5.67c-.089-.745-.395-1.351-.917-1.817-.512-.479-1.151-.718-1.918-.718Zm13.918-1.267-4.286 9.723c-.378.9-.823 1.534-1.335 1.901-.5.367-1.106.55-1.817.55a3.81 3.81 0 0 1-1.268-.216 2.522 2.522 0 0 1-1.001-.601l.684-1.201c.456.434.984.651 1.585.651.389 0 .711-.106.967-.317.267-.2.506-.55.717-1.051l.283-.617-3.902-8.822h1.668l3.085 7.071 3.052-7.071h1.568Z" fill="#000"/><rect x="270.531" y="131" width="66.818" height="37.089" rx="18.544" fill="#280c9e"/><path d="M290.46 155.139c-.7 0-1.351-.144-1.951-.433a3.777 3.777 0 0 1-1.451-1.251l.967-1.134c.645.923 1.457 1.384 2.435 1.384.656 0 1.151-.2 1.484-.6.345-.401.517-.99.517-1.768v-6.554h-4.219v-1.451h5.87v7.921c0 1.29-.311 2.263-.934 2.919-.611.645-1.517.967-2.718.967Zm14.471-4.503c0 .123-.011.284-.034.484h-7.171c.1.778.439 1.407 1.018 1.885.589.467 1.317.7 2.184.7 1.057 0 1.907-.356 2.552-1.067l.884 1.034c-.4.467-.901.822-1.501 1.067-.589.245-1.251.367-1.985.367-.934 0-1.762-.189-2.485-.567a4.213 4.213 0 0 1-1.684-1.618c-.389-.689-.584-1.467-.584-2.335 0-.856.189-1.628.567-2.318a4.141 4.141 0 0 1 1.585-1.601c.678-.389 1.439-.583 2.284-.583.845 0 1.596.194 2.252.583a3.916 3.916 0 0 1 1.551 1.601c.378.69.567 1.479.567 2.368Zm-4.37-3.202c-.767 0-1.412.234-1.934.701-.512.467-.812 1.078-.901 1.834h5.671c-.089-.745-.395-1.351-.918-1.817-.511-.479-1.15-.718-1.918-.718Zm9.495-3.585c-.956 0-1.434.517-1.434 1.551v.767h2.568v1.317h-2.535v7.522h-1.601v-7.522h-1.501v-1.317h1.501v-.784c0-.878.256-1.573.767-2.085.512-.511 1.229-.767 2.151-.767.356 0 .69.045 1.001.134.311.089.578.216.801.383l-.484 1.218a1.992 1.992 0 0 0-1.234-.417Zm5.546 0c-.956 0-1.435.517-1.435 1.551v.767h2.569v1.317h-2.535v7.522H312.6v-7.522h-1.501v-1.317h1.501v-.784c0-.878.256-1.573.767-2.085.511-.511 1.228-.767 2.151-.767.356 0 .69.045 1.001.134.311.089.578.216.8.383l-.483 1.218a1.992 1.992 0 0 0-1.234-.417Z" fill="#fff"/><rect x="348.684" y="131" width="66.818" height="37.197" rx="18.599" fill="#F5F5F5"/><rect opacity=".1" x="369.349" y="146.844" width="25.487" height="5.511" rx="2.067" fill="#000"/><rect x="225.445" y="185.42" width="125.369" height="37.197" rx="18.599" fill="#F5F5F5"/><rect opacity=".1" x="246.11" y="201.264" width="84.039" height="5.511" rx="2.067" fill="#000"/><rect x="362.402" y="185.42" width="85.417" height="37.197" rx="18.599" fill="#F5F5F5"/><rect opacity=".1" x="383.067" y="201.264" width="44.086" height="5.511" rx="2.067" fill="#000"/><rect x="426.969" y="131" width="73.017" height="37.197" rx="18.599" fill="#F5F5F5"/><rect opacity=".1" x="447.634" y="146.844" width="31.687" height="5.511" rx="2.067" fill="#000"/><rect x="458.594" y="185.42" width="98.505" height="37.197" rx="18.599" fill="#F5F5F5"/><rect opacity=".1" x="479.259" y="201.264" width="57.174" height="5.511" rx="2.067" fill="#000"/><rect x="201.637" y="239.838" width="150.168" height="37.197" rx="18.599" fill="#F5F5F5"/><rect opacity=".1" x="222.302" y="255.682" width="108.837" height="5.511" rx="2.067" fill="#000"/><rect x="363.336" y="239.838" width="66.129" height="37.197" rx="18.599" fill="#F5F5F5"/><rect opacity=".1" x="384.001" y="255.682" width="24.798" height="5.511" rx="2.067" fill="#000"/><rect x="440.859" y="239.838" width="97.127" height="37.197" rx="18.599" fill="#F5F5F5"/><rect opacity=".1" x="461.524" y="255.682" width="55.796" height="5.511" rx="2.067" fill="#000"/><rect x="333.598" y="293.766" width="90.425" height="37.234" rx="18.617" fill="#F5F5F5"/><rect opacity=".1" x="354.263" y="309.609" width="49.095" height="5.547" rx="2.067" fill="#000"/><rect x="434.664" y="293.766" width="66.129" height="37.197" rx="18.599" fill="#F5F5F5"/><rect opacity=".1" x="455.329" y="309.609" width="24.798" height="5.511" rx="2.067" fill="#000"/><rect x="225.09" y="293.766" width="97.127" height="37.197" rx="18.599" fill="#F5F5F5"/><rect opacity=".1" x="245.755" y="309.609" width="55.796" height="5.511" rx="2.067" fill="#000"/></svg>
