<svg xmlns="http://www.w3.org/2000/svg" width="22.000000pt" height="22.000000pt" viewBox="0 0 22.000000 22.000000" preserveAspectRatio="xMidYMid meet"><g transform="translate(0.000000,22.000000) scale(0.100000,-0.100000)" fill="#6d1446" stroke="none"><path d="M39 182 c-50 -45 -41 -131 17 -163 51 -27 119 -6 145 43 9 16 3 13 -18 -9 -52 -55 -131 -43 -159 23 -12 29 -12 39 0 68 26 62 102 77 150 30 26 -26 35 -64 16 -64 -5 0 -10 7 -10 15 0 47 -90 74 -123 37 -23 -25 -22 -85 1 -105 22 -20 83 -22 100 -5 19 19 14 33 -6 15 -23 -21 -66 -22 -86 -1 -37 36 -7 104 46 104 25 0 58 -27 58 -48 0 -19 -14 -14 -28 9 -9 14 -21 19 -40 17 -24 -3 -27 -7 -27 -38 0 -32 3 -35 30 -37 28 -2 28 -1 5 5 -35 11 -36 57 -1 57 13 0 26 -6 29 -14 3 -9 -1 -11 -17 -6 -12 4 -21 2 -21 -4 0 -7 23 -11 55 -11 52 0 55 1 55 26 0 15 -12 38 -29 55 -40 40 -98 41 -142 1z"></path></g></svg>