<svg xmlns="http://www.w3.org/2000/svg" width="24.000000pt" height="22.000000pt" viewBox="0 0 24.000000 22.000000" preserveAspectRatio="xMidYMid meet"><g transform="translate(0.000000,22.000000) scale(0.100000,-0.100000)" fill="#000000" stroke="none"><path d="M82 100 l-43 -80 30 0 c16 0 33 5 36 10 3 6 17 10 31 10 13 0 24 -4 24 -10 0 -5 13 -10 30 -10 27 0 29 2 24 28 -3 15 -8 50 -12 77 -7 48 -8 50 -42 53 -34 2 -36 1 -78 -78z m66 -19 c-15 -5 -19 4 -11 24 6 18 7 18 13 -1 4 -10 3 -21 -2 -23z"></path></g></svg>