<svg xmlns="http://www.w3.org/2000/svg" width="30" height="30" viewBox="0 0 53.000000 53.000000" preserveAspectRatio="xMidYMid meet"><g transform="translate(0.000000,53.000000) scale(0.100000,-0.100000)" fill="#792b56" stroke="none"><path d="M207 509 c-58 -14 -91 -34 -134 -83 -87 -99 -85 -237 4 -336 72 -80 182 -106 286 -66 49 18 130 97 140 136 9 34 -17 20 -55 -30 -105 -139 -312 -121 -384 34 -91 196 114 393 307 295 62 -31 119 -114 119 -174 0 -40 -37 -34 -45 8 -25 118 -157 182 -265 127 -126 -64 -126 -256 0 -320 77 -39 183 -17 230 50 20 29 21 30 2 30 -10 0 -27 -9 -38 -21 -90 -100 -259 -34 -259 101 0 55 21 91 76 128 28 20 43 23 87 20 59 -5 104 -38 128 -95 19 -45 18 -53 -11 -53 -18 0 -25 5 -25 20 0 11 -13 34 -29 52 -25 28 -36 33 -76 33 -40 0 -51 -5 -76 -33 -39 -44 -40 -99 -1 -142 33 -38 95 -50 127 -26 19 14 17 15 -28 16 -59 0 -97 32 -97 80 0 38 39 80 75 80 28 0 75 -40 75 -65 0 -19 -36 -20 -44 0 -3 8 -16 15 -30 15 -25 0 -39 -20 -30 -45 5 -12 31 -15 145 -15 l139 0 0 36 c0 61 -22 114 -67 164 -62 70 -159 101 -246 79z"></path></g></svg>