<svg xmlns="http://www.w3.org/2000/svg" width="16.000000pt" height="16.000000pt" viewBox="0 0 16.000000 16.000000" preserveAspectRatio="xMidYMid meet"><g transform="translate(0.000000,16.000000) scale(0.100000,-0.100000)" fill="#6d1446" stroke="none"><path d="M29 131 c-16 -16 -29 -39 -29 -51 0 -27 52 -80 78 -80 23 0 72 36 72 53 0 7 -5 4 -11 -6 -40 -69 -147 -16 -119 58 20 53 102 51 122 -4 7 -21 5 -20 -21 8 -35 37 -45 38 -76 6 -31 -30 -31 -40 0 -70 29 -30 37 -31 62 -7 10 9 13 13 7 9 -7 -5 -25 -7 -41 -5 -25 3 -28 7 -28 38 0 33 2 35 35 35 27 0 36 -5 38 -20 4 -19 3 -19 -10 -1 -20 26 -53 17 -53 -14 0 -19 6 -25 23 -26 18 -1 19 -1 2 3 -27 6 -27 43 0 43 11 0 20 -4 20 -10 0 -5 -7 -7 -15 -4 -8 4 -15 1 -15 -5 0 -6 19 -11 45 -11 34 0 45 4 45 16 0 23 -55 74 -80 74 -12 0 -35 -13 -51 -29z"></path></g></svg>