<svg xmlns="http://www.w3.org/2000/svg" width="96.000000pt" height="96.000000pt" viewBox="0 0 96.000000 96.000000" preserveAspectRatio="xMidYMid meet"><g transform="translate(0.000000,96.000000) scale(0.100000,-0.100000)" fill="#ffffff" stroke="none"><path d="M120 480 l0 -360 360 0 360 0 0 360 0 360 -360 0 -360 0 0 -360z m190 265 c26 -32 -13 -81 -47 -59 -35 22 -23 74 17 74 10 0 23 -7 30 -15z m120 0 c26 -32 -13 -81 -47 -59 -35 22 -23 74 17 74 10 0 23 -7 30 -15z m330 -25 l0 -40 -120 0 -120 0 0 40 0 40 120 0 120 0 0 -40z m0 -320 l0 -200 -280 0 -280 0 0 200 0 200 280 0 280 0 0 -200z"></path><path d="M300 500 c-11 -11 -20 -29 -20 -40 0 -11 9 -29 20 -40 11 -11 29 -20 40 -20 26 0 60 34 60 60 0 11 -9 29 -20 40 -11 11 -29 20 -40 20 -11 0 -29 -9 -40 -20z"></path><path d="M520 480 l0 -40 80 0 80 0 0 40 0 40 -80 0 -80 0 0 -40z"></path><path d="M290 353 c-27 -10 -50 -36 -50 -55 0 -16 9 -18 100 -18 91 0 100 2 100 18 0 31 -36 55 -87 58 -27 2 -55 1 -63 -3z"></path><path d="M520 320 l0 -40 80 0 80 0 0 40 0 40 -80 0 -80 0 0 -40z"></path></g></svg>