<svg xmlns="http://www.w3.org/2000/svg" fill="#000000" viewBox="0 0 24 24" width="48px" height="48px"><path d="M 9.0253906 1 C 8.4771811 1 7.9869341 1.2551676 7.6308594 1.5800781 C 7.2747847 1.9049886 7.0116264 2.3049244 6.7871094 2.7597656 C 6.419507 3.5044784 6.1640451 4.4172783 6.0039062 5.4414062 L 3.3125 6.2402344 L 1.3300781 20.601562 L 14.507812 23.017578 L 14.693359 22.980469 L 22.683594 21.412109 L 20.089844 4.5996094 L 15.386719 2.6601562 L 14.380859 2.9589844 C 14.21929 2.6374669 14.038621 2.3383213 13.828125 2.0742188 C 13.356371 1.4823247 12.675562 1 11.853516 1 C 11.276705 1 10.805419 1.272447 10.390625 1.6191406 C 10.017225 1.277114 9.5836469 1 9.0253906 1 z M 9.0253906 3 C 8.9608854 3 9.047691 2.9742917 9.2558594 3.2714844 C 9.411183 3.493233 9.5778658 3.883755 9.7304688 4.3378906 L 8.1699219 4.8007812 C 8.2895591 4.3389782 8.4316818 3.9451621 8.5800781 3.6445312 C 8.7276861 3.3454976 8.8825591 3.1441989 8.9785156 3.0566406 C 9.0744722 2.9690824 9.0686002 3 9.0253906 3 z M 11.853516 3 C 11.895466 3 12.025676 3.021706 12.263672 3.3203125 C 12.307557 3.3753743 12.35309 3.4763757 12.398438 3.546875 L 11.613281 3.7792969 C 11.546007 3.6428945 11.477888 3.5094745 11.419922 3.3613281 C 11.656274 3.0587037 11.810998 3 11.853516 3 z M 14.53125 5 L 13.570312 20.8125 L 3.5742188 18.980469 L 5.1171875 7.7910156 L 14.53125 5 z M 16.517578 5.2890625 L 18.285156 6.0175781 L 20.414062 19.820312 L 15.578125 20.769531 L 16.517578 5.2890625 z M 10.390625 9.0039062 C 8.016625 9.0039062 6.8457031 10.605766 6.8457031 12.259766 C 6.8457031 14.235766 8.7773438 14.286422 8.7773438 15.482422 C 8.7773438 15.773422 8.5713594 16.169922 8.0683594 16.169922 C 7.3073594 16.169922 6.4042969 15.378906 6.4042969 15.378906 L 5.9414062 16.917969 C 5.9414062 16.917969 6.80525 18 8.53125 18 C 9.96025 18 11.017578 16.907891 11.017578 15.212891 C 11.017578 13.060891 8.6542969 12.707969 8.6542969 11.792969 C 8.6542969 11.626969 8.707625 10.949219 9.765625 10.949219 C 10.474625 10.949219 11.070312 11.271484 11.070312 11.271484 L 11.728516 9.265625 C 11.728516 9.265625 11.275625 8.9939062 10.390625 9.0039062 z"></path></svg>