<svg xmlns="http://www.w3.org/2000/svg" xmlns:xlink="http://www.w3.org/1999/xlink" xmlns:svgjs="http://svgjs.com/svgjs" id="SvgjsSvg1001" width="40" height="40"><defs id="SvgjsDefs1002"></defs><g id="SvgjsG1008" transform="matrix(1,0,0,1,0,0)"><svg xmlns="http://www.w3.org/2000/svg" width="40" height="40" viewBox="0 0 58 83"><g transform="matrix(.1 0 0 -.1 0 83)" fill="#280c9e" class="color000 svgShape"><path d="M190 810c0-16 35-37 176-105 182-88 204-93 204-44 0 28-284 169-340 169-33 0-40-3-40-20zM32 738c-31-31-13-47 113-110 69-35 125-65 125-69 0-3-55-34-123-69-67-35-124-64-126-66-9-8 11-54 25-54 8 0 82 34 163 75 82 41 154 75 159 75 15 0 33 36 26 52-3 7-80 49-170 93-197 96-177 88-192 73zM335 409c-130-66-160-84-160-101 0-18 30-37 165-104 91-46 173-83 182-83 18-1 33 32 23 49-4 6-60 38-126 70-65 33-119 64-119 68 0 4 57 36 126 70 109 54 125 65 122 85-6 40-46 30-213-54zM7 211c-3-11 2-26 12-34 27-25 334-168 348-163 7 3 13 17 13 31 0 24-15 33-166 106-91 43-174 79-184 79-10 0-20-9-23-19z" fill="#280c9e" class="color000 svgShape"></path></g></svg></g></svg>